<?xml version="1.0" encoding="utf-8"?>
<!-- Generator: Adobe Illustrator 25.3.1, SVG Export Plug-In . SVG Version: 6.00 Build 0)  -->
<svg version="1.1" id="Layer_1" xmlns="http://www.w3.org/2000/svg" xmlns:xlink="http://www.w3.org/1999/xlink" x="0px" y="0px"
	 viewBox="0 0 26 16" style="enable-background:new 0 0 26 16;" xml:space="preserve">
<style type="text/css">
	.st0{fill:#444444;}
</style>
<path class="st0" d="M1.5,7c-0.6,0-1,0.4-1,1c0,0.6,0.4,1,1,1V7z M25.2,8.7c0.4-0.4,0.4-1,0-1.4l-6.4-6.4c-0.4-0.4-1-0.4-1.4,0
	c-0.4,0.4-0.4,1,0,1.4L23.1,8l-5.7,5.7c-0.4,0.4-0.4,1,0,1.4c0.4,0.4,1,0.4,1.4,0L25.2,8.7z M1.5,9h23.1V7H1.5V9z"/>
</svg>
