<svg width="15" height="19" viewBox="0 0 15 19" fill="none" xmlns="http://www.w3.org/2000/svg">
<path d="M13.4597 7.6909H13.4181V5.85444C13.4181 2.6609 10.7331 -0.0532742 7.45835 0.000739173C4.27381 0.0547526 1.69287 2.59338 1.69287 5.7059V5.88145C1.69287 6.14476 1.91489 6.36082 2.18547 6.36082H3.76039C4.03098 6.36082 4.25299 6.14476 4.25299 5.88145V5.82743C4.25299 4.11251 5.57815 2.60689 7.3404 2.49886C9.25529 2.38408 10.851 3.8627 10.851 5.69915V7.68414H5.99443V7.6909H1.50555C0.672986 7.7179 0 8.37281 0 9.18977V17.4943C0 18.3248 0.693799 18.9999 1.54717 18.9999H13.4528C14.3061 18.9999 14.9999 18.3248 14.9999 17.4943V9.19652C15.0069 8.36606 14.3131 7.6909 13.4597 7.6909ZM8.42273 13.7201C8.30478 13.8012 8.27009 13.8889 8.27009 14.024C8.27703 14.6316 8.27703 15.2393 8.27009 15.8537C8.28397 16.1102 8.15215 16.3533 7.91625 16.4681C7.36815 16.7381 6.82005 16.36 6.82005 15.8537C6.82005 15.8537 6.82005 15.8537 6.82005 15.8469C6.82005 15.2393 6.82005 14.6249 6.82005 14.0172C6.82005 13.8957 6.7923 13.8079 6.68129 13.7269C6.11237 13.3218 5.92505 12.6264 6.20951 12.012C6.48703 11.4178 7.16001 11.0667 7.79137 11.195C8.49905 11.33 8.99164 11.8904 8.99858 12.5724C9.01939 13.0517 8.81819 13.4433 8.42273 13.7201Z" fill="#ED1C24"/>
</svg>
