<svg width="14" height="8" viewBox="0 0 14 8" fill="none" xmlns="http://www.w3.org/2000/svg">
<path d="M13.7652 3.69944C13.6504 3.55253 10.9134 0.100899 7.42795 0.100899C3.94215 0.100899 1.20521 3.55253 1.09035 3.69944L0.855591 3.99993L1.09035 4.30042C1.20521 4.44733 3.94215 7.89913 7.42795 7.89913C10.9134 7.89913 13.6504 4.44733 13.7652 4.30042L14 3.99993L13.7652 3.69944ZM7.42795 6.92315C4.97653 6.92315 2.83683 4.80069 2.11725 4.00009C2.83716 3.19933 4.9767 1.0772 7.42795 1.0772C9.87904 1.0772 12.0187 3.1995 12.7385 4.00009C12.0184 4.80085 9.87888 6.92315 7.42795 6.92315Z" fill="#370E17"/>
<path d="M7.4278 1.3297C5.95513 1.3297 4.75708 2.52758 4.75708 4.00009C4.75708 5.47293 5.95513 6.67098 7.4278 6.67098C8.90047 6.67098 10.0985 5.47293 10.0985 4.00009C10.0985 2.52758 8.90047 1.3297 7.4278 1.3297ZM7.4278 5.69467C6.49331 5.69467 5.73322 4.93442 5.73322 3.99993C5.73322 3.06576 6.49331 2.30567 7.4278 2.30567C8.36213 2.30567 9.12238 3.06576 9.12238 3.99993C9.12238 4.93442 8.36213 5.69467 7.4278 5.69467Z" fill="#370E17"/>
</svg>
