<?xml version="1.0" encoding="utf-8"?>
<!-- Generator: Adobe Illustrator 25.3.1, SVG Export Plug-In . SVG Version: 6.00 Build 0)  -->
<svg version="1.1" id="Layer_1" xmlns="http://www.w3.org/2000/svg" xmlns:xlink="http://www.w3.org/1999/xlink" x="0px" y="0px"
	 viewBox="0 0 14 8" style="enable-background:new 0 0 14 8;" xml:space="preserve">
<style type="text/css">
	.st0{fill:none;}
	.st1{fill:#370E17;}
</style>
<g>
	<path class="st0" d="M7.4,1.1C5,1.1,2.8,3.2,2.1,4c0.3,0.4,1,1,1.8,1.6L10.3,2C9.5,1.5,8.5,1.1,7.4,1.1z"/>
	<path class="st0" d="M7.4,6.9c2.5,0,4.6-2.1,5.3-2.9c-0.3-0.3-0.8-0.9-1.5-1.4L4.9,6.2C5.7,6.6,6.5,6.9,7.4,6.9z"/>
	<path class="st1" d="M2.1,4C2.8,3.2,5,1.1,7.4,1.1c1.1,0,2,0.4,2.9,0.9l1-0.6c-1.1-0.7-2.4-1.3-3.9-1.3c-3.5,0-6.2,3.5-6.3,3.6
		L0.9,4l0.2,0.3c0.1,0.1,0.8,1,1.9,1.9L4,5.6C3.1,5,2.5,4.4,2.1,4z"/>
	<path class="st1" d="M13.8,3.7c-0.1-0.1-0.6-0.8-1.6-1.6l-0.9,0.5c0.7,0.5,1.2,1.1,1.5,1.4C12,4.8,9.9,6.9,7.4,6.9
		c-0.9,0-1.7-0.3-2.5-0.7l-1,0.6c1,0.6,2.2,1.1,3.5,1.1c3.5,0,6.2-3.5,6.3-3.6L14,4L13.8,3.7z"/>
</g>
<g>
	<path class="st1" d="M1.6,7.6c-0.2,0-0.3-0.1-0.4-0.3C1.1,7.1,1.2,6.8,1.4,6.7l11.3-6.5C13,0,13.3,0.1,13.4,0.4
		c0.1,0.2,0.1,0.5-0.2,0.7L1.9,7.6C1.8,7.6,1.7,7.6,1.6,7.6z"/>
</g>
<g>
	<path class="st0" d="M7.4,2.3C6.5,2.3,5.7,3.1,5.7,4c0,0.2,0,0.4,0.1,0.6l2.9-1.7C8.4,2.5,7.9,2.3,7.4,2.3z"/>
	<path class="st0" d="M7.4,5.7c0.9,0,1.7-0.8,1.7-1.7c0-0.1,0-0.1,0-0.2L6.4,5.4C6.7,5.6,7.1,5.7,7.4,5.7z"/>
	<path class="st1" d="M5.7,4c0-0.9,0.8-1.7,1.7-1.7c0.5,0,1,0.2,1.3,0.6l0.9-0.5C9.1,1.8,8.3,1.3,7.4,1.3C6,1.3,4.8,2.5,4.8,4
		c0,0.4,0.1,0.7,0.2,1.1l0.9-0.5C5.8,4.4,5.7,4.2,5.7,4z"/>
	<path class="st1" d="M9.1,4c0,0.9-0.8,1.7-1.7,1.7c-0.4,0-0.7-0.1-1-0.3L5.5,5.9C6,6.4,6.7,6.7,7.4,6.7c1.5,0,2.7-1.2,2.7-2.7
		c0-0.2,0-0.5-0.1-0.7L9.1,3.8C9.1,3.9,9.1,3.9,9.1,4z"/>
</g>
</svg>
