<svg width="34" height="26" viewBox="0 0 34 26" fill="none" xmlns="http://www.w3.org/2000/svg">
<path d="M17 16.4502L31.4432 1.26303C30.464 0.462085 29.24 0 27.9344 0H6.0656C4.76 0 3.53599 0.462085 2.55679 1.26303L17 16.4502Z" fill="#D23232"/>
<path d="M23.2288 12.9999L32.8576 23.135C33.5648 21.9952 34 20.6089 34 19.0994V6.83877C34 5.32929 33.5648 3.94303 32.8576 2.80322L23.2288 12.9999Z" fill="#444444"/>
<path d="M10.7712 13.0001L1.1424 2.86499C0.4352 4.0048 0 5.39106 0 6.90053V19.1612C0 20.6707 0.4352 22.0569 1.1424 23.1967L10.7712 13.0001Z" fill="#444444"/>
<path d="M21.76 14.5403L17 19.5616L12.24 14.5403L2.55679 24.737C3.53599 25.5379 4.76 26 6.0656 26H27.9072C29.2128 26 30.4368 25.5379 31.416 24.737L21.76 14.5403Z" fill="#444444"/>
</svg>
