<?xml version="1.0" encoding="utf-8"?>
<!-- Generator: Adobe Illustrator 25.3.1, SVG Export Plug-In . SVG Version: 6.00 Build 0)  -->
<svg version="1.1" id="Layer_1" xmlns="http://www.w3.org/2000/svg" xmlns:xlink="http://www.w3.org/1999/xlink" x="0px" y="0px"
	 viewBox="0 0 449.5 442.7" style="enable-background:new 0 0 449.5 442.7;" xml:space="preserve">
<style type="text/css">
	.st0{fill:url(#Background_2_);}
	.st1{fill:url(#SVGID_1_);}
	.st2{fill:url(#SVGID_2_);}
	.st3{fill:url(#SVGID_3_);}
	.st4{fill:url(#SVGID_4_);}
	.st5{fill:url(#SVGID_5_);}
	.st6{fill:url(#SVGID_6_);}
	.st7{fill:url(#SVGID_7_);}
	.st8{fill:#FFFFFF;}
	.st9{fill:url(#SVGID_8_);}
	.st10{fill:url(#SVGID_9_);}
	.st11{fill:#FCF5F2;}
	.st12{fill:url(#SVGID_10_);}
	.st13{fill:url(#SVGID_11_);}
	.st14{fill:url(#SVGID_12_);}
	.st15{fill:url(#SVGID_13_);}
	.st16{fill:url(#SVGID_14_);}
	.st17{fill:url(#SVGID_15_);}
	.st18{fill:url(#SVGID_16_);}
	.st19{fill:#EAB8B1;}
	.st20{fill:#DC9695;}
	.st21{fill:url(#SVGID_17_);}
	.st22{fill:#EECED1;}
	.st23{fill:url(#SVGID_18_);}
	.st24{fill:#CB7272;}
	.st25{fill:#1E247E;}
	.st26{fill:url(#SVGID_19_);}
	.st27{fill:url(#SVGID_20_);}
	.st28{fill:url(#SVGID_21_);}
	.st29{fill:url(#SVGID_22_);}
	.st30{fill:url(#SVGID_23_);}
	.st31{fill:url(#SVGID_24_);}
	.st32{fill:#D3D5E7;}
	.st33{fill:url(#SVGID_25_);}
	.st34{fill:url(#SVGID_26_);}
	.st35{fill:url(#SVGID_27_);}
	.st36{fill:url(#SVGID_28_);}
	.st37{fill:url(#SVGID_29_);}
	.st38{fill:url(#SVGID_30_);}
	.st39{fill:#ECECEE;}
	.st40{fill:url(#SVGID_31_);}
	.st41{fill:url(#SVGID_32_);}
	.st42{fill:url(#SVGID_33_);}
	.st43{fill:url(#SVGID_34_);}
	.st44{fill:url(#SVGID_35_);}
	.st45{fill:url(#SVGID_36_);}
	.st46{fill:url(#Latop_top_2_);}
	.st47{opacity:0.4;fill:#FFFFFF;enable-background:new    ;}
	.st48{opacity:0.7;fill:#FFFFFF;enable-background:new    ;}
	.st49{fill:url(#SVGID_37_);}
	.st50{fill:url(#SVGID_38_);}
	.st51{fill:url(#SVGID_39_);}
	.st52{fill:url(#SVGID_40_);}
	.st53{fill:url(#SVGID_41_);}
	.st54{fill:url(#SVGID_42_);}
</style>
<g>
	<g id="Support_1_">
		<linearGradient id="Background_2_" gradientUnits="userSpaceOnUse" x1="225.6935" y1="-0.731" x2="224.2817" y2="441.1514">
			<stop  offset="0" style="stop-color:#630D13"/>
			<stop  offset="1" style="stop-color:#CB2B34"/>
		</linearGradient>
		<circle id="Background_1_" class="st0" cx="225" cy="220.9" r="215.9"/>
		<g id="Table_line_1_">
			<g id="Right_11_">
				<linearGradient id="SVGID_1_" gradientUnits="userSpaceOnUse" x1="409.4855" y1="436.0644" x2="443.0851" y2="436.0644">
					<stop  offset="0" style="stop-color:#E71C58"/>
					<stop  offset="1" style="stop-color:#221015"/>
				</linearGradient>
				<path class="st1" d="M440.1,439.1h-27.6c-1.7,0-3-1.3-3-3s1.3-3,3-3h27.6c1.7,0,3,1.3,3,3S441.7,439.1,440.1,439.1z"/>
			</g>
			<g id="Middle_6_">
				<linearGradient id="SVGID_2_" gradientUnits="userSpaceOnUse" x1="38.1857" y1="436.0644" x2="403.4855" y2="436.0644">
					<stop  offset="0" style="stop-color:#E71C58"/>
					<stop  offset="1" style="stop-color:#221015"/>
				</linearGradient>
				<path class="st2" d="M400.5,439.1H41.2c-1.7,0-3-1.3-3-3s1.3-3,3-3h359.3c1.7,0,3,1.3,3,3S402.1,439.1,400.5,439.1z"/>
			</g>
			<g id="Left_7_">
				<linearGradient id="SVGID_3_" gradientUnits="userSpaceOnUse" x1="6.3854" y1="436.0644" x2="30.3854" y2="436.0644">
					<stop  offset="0" style="stop-color:#E71C58"/>
					<stop  offset="1" style="stop-color:#221015"/>
				</linearGradient>
				<path class="st3" d="M27.4,439.1h-18c-1.7,0-3-1.3-3-3s1.3-3,3-3h18c1.7,0,3,1.3,3,3S29,439.1,27.4,439.1z"/>
			</g>
		</g>
		<g id="Person_with_headphones_1_">
			<g id="Woman_1_">
				<g id="Head_3_">
					<g id="Hair_2_">
						<g id="Main_area_1_">
							<g id="Hair_3_">
								<linearGradient id="SVGID_4_" gradientUnits="userSpaceOnUse" x1="128.4549" y1="178.4202" x2="332.6249" y2="178.4202">
									<stop  offset="0" style="stop-color:#7F2C42"/>
									<stop  offset="1" style="stop-color:#221015"/>
								</linearGradient>
								<path class="st4" d="M258.5,281.2h-56.1c-42.6,0-76.3-36-73.8-78.5c1.8-30.6,6.5-58.5,10.2-68.4
									c8.7-23.1,43.2-78.2,119.9-51.4c0,0,50.5-11.1,64.9,53.5c4.4,19.7,7.5,43.2,8.9,66.6C335.1,245.5,301,281.2,258.5,281.2z"/>
								<radialGradient id="SVGID_5_" cx="230.5402" cy="178.3922" r="105.4301" gradientUnits="userSpaceOnUse">
									<stop  offset="0" style="stop-color:#421216"/>
									<stop  offset="1" style="stop-color:#0D0609"/>
								</radialGradient>
								<path class="st5" d="M258.5,284.2h-56.1c-21.4,0-41.2-8.6-55.9-24.1c-14.7-15.6-22.2-36.1-20.9-57.5
									c1.9-32,6.8-59.6,10.4-69.3c2.5-6.8,12.6-30,35.6-45.8c24.2-16.7,53.6-19.2,87.4-7.6c3.2-0.6,14.8-2,27.9,2.8
									c13.9,5.1,32,18.4,39.7,53.1c4.4,19.5,7.5,43.4,9,67.1c1.3,21.2-6,41.5-20.7,57C300.3,275.3,279.7,284.2,258.5,284.2z
									 M219.7,78.7c-54.8,0-75.5,49.9-78.1,56.7c-3.5,9.4-8.2,37.3-10,67.5c-1.2,19.8,5.7,38.6,19.3,53.1
									c13.5,14.4,31.8,22.3,51.5,22.3h56.1c19.6,0,38.5-8.2,52-22.5c13.5-14.3,20.2-33,19.1-52.6c-1.4-23.4-4.5-46.9-8.8-66.1
									c-5.7-25.7-17.8-42.2-36-48.8c-13.4-4.9-25.3-2.4-25.4-2.4l-0.8,0.2l-0.8-0.3C243.5,80.7,230.9,78.7,219.7,78.7z"/>
							</g>
						</g>
						<g id="Line:_middle_top_1_">
							<radialGradient id="SVGID_6_" cx="222.7853" cy="137.5147" r="11.4109" gradientUnits="userSpaceOnUse">
								<stop  offset="0" style="stop-color:#421216"/>
								<stop  offset="1" style="stop-color:#0D0609"/>
							</radialGradient>
							<path class="st6" d="M209.3,143.5c-0.7,0-1.3-0.5-1.5-1.2c-0.2-0.8,0.4-1.6,1.2-1.7c9-1.7,18-4.6,26.6-8.8
								c0.7-0.4,1.6,0,2,0.7c0.4,0.7,0,1.6-0.7,2c-8.9,4.3-18.1,7.3-27.4,9C209.5,143.5,209.4,143.5,209.3,143.5z"/>
						</g>
						<g id="Line:_left_top_1_">
							<radialGradient id="SVGID_7_" cx="199.3854" cy="143.2645" r="3.7577" gradientUnits="userSpaceOnUse">
								<stop  offset="0" style="stop-color:#421216"/>
								<stop  offset="1" style="stop-color:#0D0609"/>
							</radialGradient>
							<path class="st7" d="M195.9,145.1c-0.8,0-1.5-0.6-1.5-1.4c0-0.8,0.6-1.5,1.4-1.6c2.2-0.1,4.6-0.3,6.9-0.6
								c0.8-0.1,1.6,0.5,1.7,1.3s-0.5,1.6-1.3,1.7C200.7,144.7,198.3,145,195.9,145.1C195.9,145.1,195.9,145.1,195.9,145.1z"/>
						</g>
						<g id="Line:_right_top_3_">
							<path class="st8" d="M281.2,139.5c2.1,4.3,5.9,8.7,10.2,12c2.3,1.8,4.1,4,5.4,6.6"/>
							<radialGradient id="SVGID_8_" cx="288.9857" cy="148.7643" r="10.0783" gradientUnits="userSpaceOnUse">
								<stop  offset="0" style="stop-color:#421216"/>
								<stop  offset="1" style="stop-color:#0D0609"/>
							</radialGradient>
							<path class="st9" d="M296.8,159.6c-0.5,0-1.1-0.3-1.3-0.8c-1.2-2.4-2.9-4.4-5-6.1c-4.6-3.5-8.5-8.1-10.6-12.5
								c-0.4-0.7-0.1-1.6,0.7-2c0.7-0.4,1.6-0.1,2,0.7c1.9,4,5.6,8.3,9.8,11.5c2.5,1.9,4.4,4.3,5.8,7.1c0.4,0.7,0.1,1.6-0.7,2
								C297.2,159.5,297,159.6,296.8,159.6z"/>
						</g>
						<g id="Line:_left_bottom_1_">
							<radialGradient id="SVGID_9_" cx="144.4855" cy="228.3643" r="9.8679" gradientUnits="userSpaceOnUse">
								<stop  offset="0" style="stop-color:#421216"/>
								<stop  offset="1" style="stop-color:#0D0609"/>
							</radialGradient>
							<path class="st10" d="M149,241c-0.5,0-0.9-0.2-1.2-0.6c-5-6.8-8.2-14.7-9.3-22.9c-0.1-0.8,0.5-1.6,1.3-1.7
								c0.8-0.1,1.6,0.5,1.7,1.3c1,7.7,4.1,15.2,8.7,21.5c0.5,0.7,0.3,1.6-0.3,2.1C149.6,240.9,149.3,241,149,241z"/>
						</g>
					</g>
					<g id="Face_1_">
						<g id="Left_ear_1_">
							<path class="st11" d="M178.1,206.8L178.1,206.8c-2.9,2.7-7.5,2.4-10.2-0.5l-6.8-7.5c-2.7-2.9-2.4-7.5,0.5-10.2l0,0
								c2.9-2.7,7.5-2.4,10.2,0.5l6.8,7.5C181.3,199.6,181.1,204.2,178.1,206.8z"/>
							<radialGradient id="SVGID_10_" cx="169.8532" cy="197.6679" r="13.2978" gradientUnits="userSpaceOnUse">
								<stop  offset="0" style="stop-color:#421216"/>
								<stop  offset="1" style="stop-color:#0D0609"/>
							</radialGradient>
							<path class="st12" d="M173.3,211.1c-2.6,0-5.3-1.1-7.2-3.2l-6.8-7.5c-1.7-1.9-2.6-4.4-2.5-7c0.1-2.6,1.3-5,3.1-6.7
								c1.9-1.8,4.4-2.7,7-2.5c2.6,0.1,5,1.3,6.7,3.1l6.8,7.5c1.8,2,2.7,4.5,2.5,7.2c-0.2,2.6-1.3,4.9-3.2,6.5
								C177.9,210.3,175.6,211.1,173.3,211.1z M166.4,189.2c-1.2,0-2.2,0.4-3.1,1.2c-0.9,0.9-1.5,2.1-1.6,3.3
								c-0.1,1.3,0.4,2.4,1.2,3.3l6.8,7.5c1.8,1.9,4.8,2.1,6.6,0.3l0.1-0.1c0.9-0.8,1.4-1.9,1.5-3.1c0.1-1.3-0.4-2.5-1.2-3.5
								l-6.8-7.5c-0.8-0.9-2-1.5-3.3-1.5C166.5,189.2,166.4,189.2,166.4,189.2z"/>
						</g>
						<g id="Face_shape_1_">
							<path class="st11" d="M280.3,150.9c6.6,5.1,10.6,13,10.6,21.3v6.5c0,17.4-4.9,34.5-14.6,48.9c-5.9,8.7-13.7,17.2-23.9,22.6
								c-6.4,3.4-13.8,5.5-22.2,5.7h-0.7c-8.8-0.1-16.5-2.3-23.3-5.9c-8.3-4.4-15-10.8-20.4-17.6c-12-15.3-18.1-34.5-18.1-53.9v-3.9
								c0-10.7,8.7-20.5,19.3-22c14.6-2,45.8,1.2,71.4-20.6c2.3-2,5.8-1.2,7.1,1.5C268.6,139.7,274,146.1,280.3,150.9z"/>
							<radialGradient id="SVGID_11_" cx="229.2858" cy="193.3554" r="65.0561" gradientUnits="userSpaceOnUse">
								<stop  offset="0" style="stop-color:#421216"/>
								<stop  offset="1" style="stop-color:#0D0609"/>
							</radialGradient>
							<path class="st13" d="M229.5,258.9c-8.8-0.1-17.1-2.2-24.7-6.2c-7.7-4.1-14.9-10.3-21.3-18.4c-12.1-15.4-18.8-35.2-18.8-55.8
								v-3.9c0-12.1,9.8-23.3,21.9-25c3-0.4,6.5-0.6,10.5-0.8c15.7-0.9,39.5-2.2,59.4-19.1c1.8-1.5,4.1-2.2,6.4-1.7
								c2.3,0.5,4.3,2,5.3,4.2c2.9,5.9,8,11.8,13.9,16.3l0,0c7.4,5.7,11.8,14.5,11.8,23.7v6.5c0,18.4-5.2,35.9-15.1,50.6
								c-7.3,10.7-15.7,18.6-25,23.6c-7.2,3.8-15.1,5.8-23.5,6L229.5,258.9z M261.3,133.8c-0.3,0-0.6,0.1-1,0.4
								c-21.4,18.2-46.4,19.6-63,20.5c-3.9,0.2-7.3,0.4-10,0.8c-9.2,1.3-16.7,9.8-16.7,19v3.9c0,19.2,6.2,37.7,17.5,52
								c5.9,7.4,12.5,13.1,19.4,16.8c6.8,3.6,14.2,5.5,21.9,5.6h0.7c7.4-0.2,14.4-2,20.8-5.3c8.4-4.5,16.1-11.7,22.8-21.6
								c9.2-13.7,14.1-30,14.1-47.2v-6.5c0-7.3-3.5-14.4-9.4-18.9c-6.6-5-12.3-11.8-15.7-18.4c-0.2-0.5-0.7-0.8-1.1-0.9
								C261.6,133.9,261.5,133.8,261.3,133.8z"/>
						</g>
						<g id="Eyes_1_">
							<g>
								<g id="Left_11_">
									<g>
										<radialGradient id="SVGID_12_" cx="204.0855" cy="187.1642" r="4.4256" gradientUnits="userSpaceOnUse">
											<stop  offset="0" style="stop-color:#421216"/>
											<stop  offset="1" style="stop-color:#0D0609"/>
										</radialGradient>
										<path class="st14" d="M204.1,191.7c5.8,0,5.8-9,0-9S198.3,191.7,204.1,191.7L204.1,191.7z"/>
									</g>
								</g>
								<g id="Right_13_">
									<g>
										<radialGradient id="SVGID_13_" cx="254.3855" cy="187.1642" r="4.4256" gradientUnits="userSpaceOnUse">
											<stop  offset="0" style="stop-color:#421216"/>
											<stop  offset="1" style="stop-color:#0D0609"/>
										</radialGradient>
										<path class="st15" d="M254.4,191.7c5.8,0,5.8-9,0-9S248.6,191.7,254.4,191.7L254.4,191.7z"/>
									</g>
								</g>
							</g>
						</g>
						<g id="Nose_1_">
							<radialGradient id="SVGID_14_" cx="229.2358" cy="200.7142" r="6.4021" gradientUnits="userSpaceOnUse">
								<stop  offset="0" style="stop-color:#421216"/>
								<stop  offset="1" style="stop-color:#0D0609"/>
							</radialGradient>
							<path class="st16" d="M229.2,204c-3.5,0-6.6-1.5-8.2-4c-0.4-0.7-0.2-1.6,0.5-2.1c0.7-0.4,1.6-0.2,2.1,0.5
								c1,1.6,3.2,2.6,5.6,2.6c2.9,0,4.9-1.4,5.7-2.7c0.4-0.7,1.3-1,2-0.6s1,1.3,0.6,2C236.1,202.3,232.8,204,229.2,204z"/>
						</g>
						<g id="Eyebrow_1_">
							<g id="Left_3_">
								<radialGradient id="SVGID_15_" cx="202.8853" cy="172.8053" r="7.9868" gradientUnits="userSpaceOnUse">
									<stop  offset="0" style="stop-color:#421216"/>
									<stop  offset="1" style="stop-color:#0D0609"/>
								</radialGradient>
								<path class="st17" d="M194,175.8c-0.8,0-1.5-0.4-1.8-1.2c-0.5-1,0-2.2,1-2.7c0.4-0.2,10.2-4.7,19.5,0c1,0.5,1.4,1.7,0.9,2.7
									c-0.5,1-1.7,1.4-2.7,0.9c-7.6-3.8-16,0-16.1,0C194.6,175.7,194.3,175.8,194,175.8z"/>
							</g>
							<g id="Right_6_">
								<g>
									<radialGradient id="SVGID_16_" cx="255.4853" cy="172.8058" r="7.9871" gradientUnits="userSpaceOnUse">
										<stop  offset="0" style="stop-color:#421216"/>
										<stop  offset="1" style="stop-color:#0D0609"/>
									</radialGradient>
									<path class="st18" d="M264.4,175.8c-0.3,0-0.6-0.1-0.8-0.2c-0.1-0.1-8.5-3.8-16.1,0c-1,0.5-2.2,0.1-2.7-0.9
										c-0.5-1-0.1-2.2,0.9-2.7c9.4-4.7,19.1-0.2,19.5,0c1,0.5,1.4,1.7,1,2.7C265.9,175.3,265.1,175.8,264.4,175.8z"/>
								</g>
							</g>
						</g>
						<g id="Cheeks_1_">
							<ellipse class="st19" cx="194.4" cy="202.4" rx="9.7" ry="6.5"/>
							<ellipse id="Right_4_" class="st19" cx="264.1" cy="202.4" rx="9.7" ry="6.5"/>
						</g>
						<g id="Mouth_2_">
							<g id="Mouth_3_">
								<path class="st20" d="M242.4,218.1l-2,5l-0.2,0.5c-0.4,1-1,2-1.9,3.4c-0.3,0.4-0.6,0.8-0.9,1.2c-0.8,0.9-1.9,1.8-3.1,2.5
									c-0.1,0.1-0.2,0.1-0.4,0.2c-0.5,0.3-1,0.5-1.5,0.7s-1.1,0.4-1.7,0.6c-0.5,0.2-1,0.2-1.5,0.2s-1-0.1-1.5-0.2l0,0
									c-0.6-0.2-1.2-0.4-1.7-0.6s-1-0.5-1.5-0.7c-0.1-0.1-0.2-0.1-0.4-0.2c-1.2-0.7-2.3-1.6-3.1-2.5c-0.4-0.4-0.7-0.8-1-1.3
									c-0.8-1.1-1.4-2.3-1.8-3.3l-2.2-5.5c-0.4-1,0.3-2.1,1.4-2.1H241C242.1,216,242.8,217.1,242.4,218.1z"/>
								<radialGradient id="SVGID_17_" cx="229.1855" cy="224.1643" r="13.0103" gradientUnits="userSpaceOnUse">
									<stop  offset="0" style="stop-color:#421216"/>
									<stop  offset="1" style="stop-color:#0D0609"/>
								</radialGradient>
								<path class="st21" d="M229.2,234.4c-0.7,0-1.3-0.1-1.9-0.2l-0.2-0.1c-0.7-0.2-1.3-0.4-1.8-0.6c-0.3-0.1-0.6-0.3-0.9-0.4
									c-0.2-0.1-0.4-0.2-0.6-0.3l-0.4-0.2c0,0-0.1,0-0.1-0.1l-0.1-0.1c-1.3-0.8-2.6-1.8-3.5-2.9c-0.5-0.5-0.8-1-1.2-1.6
									c-1-1.4-1.6-2.7-2-3.7l-2.2-5.5c-0.4-1.1-0.3-2.3,0.4-3.3c0.7-1,1.7-1.5,2.9-1.5H241c1.2,0,2.3,0.6,2.9,1.5
									c0.7,1,0.8,2.2,0.4,3.3v0l-2.2,5.5c-0.5,1.1-1.1,2.2-2.1,3.7l-0.1,0.1l-1,1.3c-0.9,1-2.1,2-3.5,2.8
									c-0.3,0.2-0.5,0.3-0.6,0.3c-0.6,0.3-1.2,0.6-1.7,0.8c-0.5,0.2-1.1,0.4-1.7,0.6C230.6,234.4,229.8,234.4,229.2,234.4z
									 M228.2,230.2c0.8,0.2,1.5,0.2,1.7,0.1l0.1,0c0.6-0.2,1.1-0.4,1.6-0.6c0.5-0.2,0.9-0.3,1.2-0.6l0.1-0.1
									c0.1,0,0.2-0.1,0.2-0.1l0.1,0c1-0.6,1.9-1.3,2.6-2l0.8-1.1c0.8-1.3,1.4-2.2,1.7-3l1.9-4.9h-22.2l1.9,4.9
									c0.4,1,1,2.1,1.6,2.9l0.1,0.1c0.2,0.4,0.4,0.6,0.7,0.9l0.1,0.1c0.7,0.7,1.6,1.5,2.5,2.1c0.1,0,0.3,0.1,0.5,0.2
									c0.2,0.1,0.4,0.2,0.7,0.3c0.2,0.1,0.4,0.2,0.6,0.3C227.2,229.9,227.7,230.1,228.2,230.2z M242.4,218.1L242.4,218.1
									L242.4,218.1z"/>
							</g>
						</g>
						<g id="Tongue_2_">
							<g id="Tongue_3_">
								<path class="st22" d="M237.3,228.3c-0.2,0.3-0.7,0.8-1.1,1.1c-0.8,0.7-1.7,1.2-2.7,1.8c-0.1,0.1-0.3,0.2-0.4,0.2
									c-0.4,0.2-0.8,0.3-1.2,0.5c-0.4,0.2-0.9,0.3-1.4,0.5c-0.4,0.1-0.8,0.2-1.2,0.2c-0.4,0-0.8-0.1-1.2-0.2l0,0
									c-0.5-0.1-1-0.3-1.4-0.5s-0.8-0.3-1.2-0.5c-0.1-0.1-0.3-0.1-0.4-0.2c-1-0.6-2.1-1.2-2.8-1.9c-0.3-0.3-0.7-0.5-0.9-0.9
									c0.6-2,3-3.9,5.2-3.9c1.3,0,2.6,0.5,3.4,1.4c0.1,0.1,0.1,0.1,0.2,0c0.7-0.5,1.5-0.8,2.5-0.8
									C234.5,225.1,236.7,226.6,237.3,228.3z"/>
								<radialGradient id="SVGID_18_" cx="229.3635" cy="228.5141" r="7.8325" gradientUnits="userSpaceOnUse">
									<stop  offset="0" style="stop-color:#421216"/>
									<stop  offset="1" style="stop-color:#0D0609"/>
								</radialGradient>
								<path class="st23" d="M229.3,234.1c-0.6,0-1.1-0.1-1.6-0.2c-0.7-0.1-1.3-0.4-1.7-0.6c-0.2-0.1-0.3-0.1-0.5-0.2
									c-0.2-0.1-0.5-0.2-0.7-0.3l-0.1-0.1c-0.1,0-0.3-0.1-0.5-0.2l-0.4-0.2c-0.9-0.6-1.9-1.1-2.6-1.9c-0.1-0.1-0.1-0.1-0.2-0.2
									c-0.3-0.2-0.7-0.6-1-1.1l-0.3-0.5l0.2-0.6c0.8-2.7,3.8-5,6.6-5c1.3,0,2.6,0.4,3.7,1.1c0.8-0.4,1.6-0.5,2.4-0.5
									c2.5,0,5.2,1.9,6,4.2l0.2,0.7l-0.4,0.6c-0.3,0.5-0.9,1.1-1.4,1.4c-0.8,0.7-1.6,1.2-2.5,1.7l-0.3,0.2
									c-0.2,0.2-0.5,0.3-0.8,0.4c-0.2,0.1-0.4,0.2-0.6,0.2c-0.2,0.1-0.3,0.1-0.5,0.2c-0.3,0.2-0.7,0.3-1,0.4
									c-0.2,0.1-0.4,0.1-0.5,0.2l-0.2,0.1C230.4,233.9,229.9,234.1,229.3,234.1z M226.3,230.1c0.1,0.1,0.2,0.1,0.4,0.1
									c0.2,0.1,0.5,0.2,0.7,0.3c0.4,0.2,0.7,0.3,1,0.4c0.4,0.1,0.7,0.2,0.9,0.2c0.2,0,0.5-0.1,0.7-0.1c0.2-0.1,0.4-0.2,0.6-0.2
									c0.2-0.1,0.4-0.1,0.5-0.2c0.2-0.1,0.5-0.2,0.7-0.3c0.2-0.1,0.3-0.1,0.5-0.2l0.7-0.4c0.8-0.5,1.5-0.9,2.1-1.4l0.1-0.1
									c0.1,0,0.1-0.1,0.2-0.1c-0.7-0.8-1.8-1.5-2.8-1.5c-0.6,0-1.1,0.1-1.6,0.5c-0.7,0.6-1.6,0.5-2.2-0.1c-0.6-0.6-1.4-1-2.3-1
									c-1.2,0-2.7,0.9-3.4,2.1c0.1,0.1,0.1,0.1,0.2,0.2c0.5,0.5,1.3,0.9,2.1,1.4l0.4,0.3C226,229.9,226.1,230,226.3,230.1z
									 M232.4,230.1L232.4,230.1L232.4,230.1z"/>
							</g>
							<g id="Line_1_">
								<path class="st24" d="M229.9,225.8c0,0,1,0.8,1.5,2.4"/>
								<path class="st25" d="M231.4,229.7c-0.6,0-1.2-0.4-1.4-1.1c-0.3-1.1-1-1.7-1-1.7c-0.6-0.5-0.7-1.5-0.2-2.1
									c0.5-0.6,1.4-0.7,2.1-0.2c0.1,0.1,1.4,1.1,2,3.1c0.2,0.8-0.2,1.6-1,1.9C231.7,229.6,231.5,229.7,231.4,229.7z"/>
							</g>
						</g>
					</g>
				</g>
				<g id="Body_3_">
					<g>
						<linearGradient id="SVGID_19_" gradientUnits="userSpaceOnUse" x1="139.9855" y1="348.6142" x2="318.5855" y2="348.6142">
							<stop  offset="0" style="stop-color:#91CD92"/>
							<stop  offset="1" style="stop-color:#DAEEDF"/>
						</linearGradient>
						<path class="st26" d="M293,434.7H165.5c-14,0-25.5-11.5-25.5-25.5v-79.9c0-36.8,29.9-66.7,66.7-66.7h45.2
							c36.8,0,66.7,29.9,66.7,66.7v79.9C318.5,423.2,307.1,434.7,293,434.7z"/>
						<radialGradient id="SVGID_20_" cx="229.2853" cy="348.6142" r="90.6894" gradientUnits="userSpaceOnUse">
							<stop  offset="0" style="stop-color:#421216"/>
							<stop  offset="1" style="stop-color:#0D0609"/>
						</radialGradient>
						<path class="st27" d="M293,437.7H165.5c-15.7,0-28.5-12.8-28.5-28.5v-79.9c0-38.4,31.3-69.7,69.7-69.7h45.2
							c38.4,0,69.7,31.3,69.7,69.7v79.9C321.5,424.9,308.6,437.7,293,437.7z M206.7,265.6c-35.1,0-63.7,28.6-63.7,63.7v79.9
							c0,12.4,10.1,22.5,22.5,22.5H293c12.4,0,22.5-10.1,22.6-22.5v-79.9c0-35.1-28.6-63.7-63.7-63.7H206.7z"/>
					</g>
				</g>
				<g id="Neck_2_">
					<g id="Neck_3_">
						<path class="st11" d="M252.4,250.2v18c0,0.6-0.3,1.2-0.7,1.5c-20.4,16.6-40.5,3.1-44.6,0c-0.5-0.4-0.8-1-0.8-1.6V250
							c6.7,3.5,14.4,5.8,23.3,5.9h0.7C238.6,255.7,245.9,253.5,252.4,250.2z"/>
						<radialGradient id="SVGID_21_" cx="229.3356" cy="262.8974" r="22.3441" gradientUnits="userSpaceOnUse">
							<stop  offset="0" style="stop-color:#421216"/>
							<stop  offset="1" style="stop-color:#0D0609"/>
						</radialGradient>
						<path class="st28" d="M230.3,280.8c-12.5,0-22.3-6.7-25-8.7c-1.3-1-2-2.5-2-4V245l4.4,2.3c7,3.7,14.2,5.5,21.9,5.6h0.7
							c7.2-0.2,14-1.9,20.7-5.4l4.4-2.2v22.9c0,1.5-0.7,3-1.8,3.9C245.5,278.6,237.4,280.8,230.3,280.8z M209.3,267.6
							c5.3,3.9,22.4,14.1,40.1,0.1v-12.8c-6.2,2.5-12.4,3.9-19,4l-0.8,0c-7-0.1-13.8-1.5-20.3-4.2V267.6z M249.4,268.2
							C249.4,268.2,249.4,268.2,249.4,268.2L249.4,268.2z"/>
					</g>
				</g>
			</g>
			<g id="Headphones_1_">
				<g id="Speaker_1_">
					<linearGradient id="SVGID_22_" gradientUnits="userSpaceOnUse" x1="281.4855" y1="196.3642" x2="317.2855" y2="196.3642">
						<stop  offset="0" style="stop-color:#91CD92"/>
						<stop  offset="1" style="stop-color:#DAEEDF"/>
					</linearGradient>
					<path class="st29" d="M317.3,192.4v8c0,11.3-9.2,20.5-20.5,20.5h-15.3v-2.4c6.2-12.3,9.3-25.9,9.3-39.8v-6.8h6
						C308.1,171.9,317.3,181.1,317.3,192.4z"/>
					<radialGradient id="SVGID_23_" cx="299.3854" cy="196.3642" r="24.4239" gradientUnits="userSpaceOnUse">
						<stop  offset="0" style="stop-color:#421216"/>
						<stop  offset="1" style="stop-color:#0D0609"/>
					</radialGradient>
					<path class="st30" d="M296.8,223.9h-18.3v-6.1l0.3-0.6c6-11.8,9-24.8,9-38.4v-9.8h9c13,0,23.5,10.5,23.5,23.5v8
						C320.3,213.3,309.7,223.9,296.8,223.9z M281.5,218.5L281.5,218.5L281.5,218.5z M285.1,217.9h11.7c9.6,0,17.5-7.9,17.5-17.5v-8
						c0-9.6-7.9-17.5-17.5-17.5h-3v3.8C293.8,192.4,290.8,205.9,285.1,217.9z"/>
				</g>
				<g id="Mic_1_">
					<g>
						<g>
							<g>
								<radialGradient id="SVGID_24_" cx="268.9352" cy="227.7143" r="20.2232" gradientUnits="userSpaceOnUse">
									<stop  offset="0" style="stop-color:#421216"/>
									<stop  offset="1" style="stop-color:#0D0609"/>
								</radialGradient>
								<path class="st31" d="M283.6,237.6h-38.5c-1.7,0-3-1.3-3-3s1.3-3,3-3h38.5c3.4,0,6.2-2.8,6.2-6.2v-4.5c0-1.7,1.3-3,3-3
									s3,1.3,3,3v4.5C295.8,232.1,290.3,237.6,283.6,237.6z"/>
							</g>
						</g>
						<g>
							<path class="st32" d="M247.7,239h-4.4c-2.4,0-4.4-2-4.4-4.4l0,0c0-2.4,2-4.4,4.4-4.4h4.4c2.4,0,4.4,2,4.4,4.4l0,0
								C252.1,237,250.1,239,247.7,239z"/>
							<radialGradient id="SVGID_25_" cx="245.4855" cy="234.5639" r="8.5706" gradientUnits="userSpaceOnUse">
								<stop  offset="0" style="stop-color:#421216"/>
								<stop  offset="1" style="stop-color:#0D0609"/>
							</radialGradient>
							<path class="st33" d="M247.7,242h-4.4c-4.1,0-7.4-3.3-7.4-7.4c0-4.1,3.3-7.4,7.4-7.4h4.4c4.1,0,7.4,3.3,7.4,7.4
								C255.1,238.6,251.8,242,247.7,242z M243.3,233.2c-0.7,0-1.4,0.7-1.4,1.4c0,0.7,0.7,1.4,1.4,1.4h4.4c0.7,0,1.4-0.7,1.4-1.4
								c0-0.7-0.7-1.4-1.4-1.4H243.3z"/>
						</g>
					</g>
				</g>
			</g>
		</g>
		<g id="Speech_balloon_2_">
			<path id="Shadow_1_" class="st32" d="M154.8,30v60.8c0,9-7.3,16.2-16.2,16.2l0,0v21.6c0,1.2-1.3,1.9-2.3,1.3L100.2,107H27.8
				c-9,0-16.2-7.3-16.2-16.2V30c0-9,7.3-16.2,16.2-16.2h110.8C147.6,13.8,154.8,21,154.8,30z"/>
			<g id="Speech_balloon_3_">
				<g id="Shape_1_">
					<path class="st8" d="M147.3,21.8v58.6c0,8.6-7,15.6-15.6,15.6l0,0v20.8c0,1.1-1.3,1.8-2.2,1.2L94.7,96H25
						c-8.6,0-15.6-7-15.6-15.6V21.8c0-8.6,7-15.6,15.6-15.6h106.7C140.3,6.2,147.3,13.2,147.3,21.8z"/>
					<radialGradient id="SVGID_26_" cx="78.3354" cy="62.1738" r="65.3012" gradientUnits="userSpaceOnUse">
						<stop  offset="0" style="stop-color:#421216"/>
						<stop  offset="1" style="stop-color:#0D0609"/>
					</radialGradient>
					<path class="st34" d="M130.2,120.7c-0.7,0-1.5-0.2-2.1-0.6L94,98.5H25c-10,0-18.1-8.1-18.1-18.1V21.8C6.9,11.8,15,3.7,25,3.7
						h106.7c10,0,18.1,8.1,18.1,18.1v58.6c0,9.1-6.8,16.7-15.6,17.9v18.5c0,1.4-0.8,2.8-2.1,3.4
						C131.5,120.5,130.9,120.7,130.2,120.7z M130.8,115.8L130.8,115.8C130.8,115.8,130.8,115.8,130.8,115.8z M25,8.7
						c-7.2,0-13.1,5.9-13.1,13.1v58.6c0,7.2,5.9,13.1,13.1,13.1h70.4l33.8,21.4V93.5h2.5c7.2,0,13.1-5.9,13.1-13.1V21.8
						c0-7.2-5.9-13.1-13.1-13.1H25z"/>
				</g>
				<g id="Text_1_">
					<g>
						<g id="_x34_th_line_9_">
							<radialGradient id="SVGID_27_" cx="36.3857" cy="62.9643" r="10.14" gradientUnits="userSpaceOnUse">
								<stop  offset="0" style="stop-color:#421216"/>
								<stop  offset="1" style="stop-color:#0D0609"/>
							</radialGradient>
							<path class="st35" d="M48.6,65H24.2c-1.1,0-2-0.9-2-2c0-1.1,0.9-2,2-2h24.4c1.1,0,2,0.9,2,2C50.6,64.1,49.7,65,48.6,65z"/>
						</g>
						<g id="_x33_rd_line_9_">
							<radialGradient id="SVGID_28_" cx="48.5856" cy="53.664" r="18.721" gradientUnits="userSpaceOnUse">
								<stop  offset="0" style="stop-color:#421216"/>
								<stop  offset="1" style="stop-color:#0D0609"/>
							</radialGradient>
							<path class="st36" d="M73,55.7H24.2c-1.1,0-2-0.9-2-2s0.9-2,2-2H73c1.1,0,2,0.9,2,2S74.1,55.7,73,55.7z"/>
						</g>
						<g id="_x32_nd_line_9_">
							<radialGradient id="SVGID_29_" cx="48.5856" cy="44.3642" r="18.721" gradientUnits="userSpaceOnUse">
								<stop  offset="0" style="stop-color:#421216"/>
								<stop  offset="1" style="stop-color:#0D0609"/>
							</radialGradient>
							<path class="st37" d="M73,46.4H24.2c-1.1,0-2-0.9-2-2s0.9-2,2-2H73c1.1,0,2,0.9,2,2S74.1,46.4,73,46.4z"/>
						</g>
						<g id="_x31_st_line_9_">
							<radialGradient id="SVGID_30_" cx="48.5856" cy="35.0644" r="18.721" gradientUnits="userSpaceOnUse">
								<stop  offset="0" style="stop-color:#421216"/>
								<stop  offset="1" style="stop-color:#0D0609"/>
							</radialGradient>
							<path class="st38" d="M73,37.1H24.2c-1.1,0-2-0.9-2-2s0.9-2,2-2H73c1.1,0,2,0.9,2,2S74.1,37.1,73,37.1z"/>
						</g>
					</g>
				</g>
				<path id="Body_background_1_" class="st39" d="M125.2,80.5H97.4c-4.3,0-7.8-3.5-7.8-7.8V32.2c0-4.3,3.5-7.8,7.8-7.8h27.8
					c4.3,0,7.8,3.5,7.8,7.8v40.5C133.1,77,129.6,80.5,125.2,80.5z"/>
				<g id="Person_1_">
					<g id="Body_2_">
						<linearGradient id="SVGID_31_" gradientUnits="userSpaceOnUse" x1="100.9855" y1="62.2142" x2="122.7855" y2="62.2142">
							<stop  offset="0" style="stop-color:#E87167"/>
							<stop  offset="1" style="stop-color:#FFCCE5"/>
						</linearGradient>
						<path class="st40" d="M121.5,72h-19.3c-0.7,0-1.2-0.5-1.2-1.2v-8c0-5.7,4.6-10.3,10.3-10.3h1.2c5.7,0,10.3,4.6,10.3,10.3v8
							C122.7,71.4,122.1,72,121.5,72z"/>
						<radialGradient id="SVGID_32_" cx="111.8854" cy="62.2143" r="12.3384" gradientUnits="userSpaceOnUse">
							<stop  offset="0" style="stop-color:#421216"/>
							<stop  offset="1" style="stop-color:#0D0609"/>
						</radialGradient>
						<path class="st41" d="M121.5,74h-19.3c-1.8,0-3.2-1.4-3.2-3.2v-8c0-6.8,5.5-12.3,12.3-12.3h1.2c6.8,0,12.3,5.5,12.3,12.3
							l0,8.3C124.5,72.7,123,74,121.5,74z M122.8,70.8L122.8,70.8L122.8,70.8z M103,70h17.8v-7.2c0-4.6-3.7-8.3-8.3-8.3h-1.2
							c-4.6,0-8.3,3.7-8.3,8.3V70z"/>
					</g>
					<g id="Head_2_">
						<circle class="st11" cx="111.8" cy="39.7" r="5.8"/>
						<radialGradient id="SVGID_33_" cx="111.7856" cy="39.6643" r="7.8" gradientUnits="userSpaceOnUse">
							<stop  offset="0" style="stop-color:#421216"/>
							<stop  offset="1" style="stop-color:#0D0609"/>
						</radialGradient>
						<path class="st42" d="M111.8,47.5c-4.3,0-7.8-3.5-7.8-7.8c0-4.3,3.5-7.8,7.8-7.8c4.3,0,7.8,3.5,7.8,7.8
							C119.6,44,116.1,47.5,111.8,47.5z M111.8,35.9c-2.1,0-3.8,1.7-3.8,3.8c0,2.1,1.7,3.8,3.8,3.8c2.1,0,3.8-1.7,3.8-3.8
							C115.6,37.6,113.9,35.9,111.8,35.9z"/>
					</g>
				</g>
				<g id="Line:_top_left_1_">
					<g>
						<radialGradient id="SVGID_34_" cx="18.8853" cy="17.2642" r="4.2577" gradientUnits="userSpaceOnUse">
							<stop  offset="0" style="stop-color:#421216"/>
							<stop  offset="1" style="stop-color:#0D0609"/>
						</radialGradient>
						<path class="st43" d="M16.4,21.8c-0.2,0-0.3,0-0.5-0.1c-0.8-0.3-1.2-1.1-0.9-1.9c1-2.9,3-5.3,5.7-6.8c0.7-0.4,1.6-0.2,2,0.6
							c0.4,0.7,0.2,1.6-0.6,2c-2,1.1-3.6,3-4.3,5.2C17.6,21.4,17,21.8,16.4,21.8z"/>
					</g>
				</g>
			</g>
		</g>
		<g id="Laptop_1_">
			<g id="Laptop_bottom_1_">
				<linearGradient id="SVGID_35_" gradientUnits="userSpaceOnUse" x1="87.0855" y1="421.4642" x2="371.4855" y2="421.4642">
					<stop  offset="0" style="stop-color:#91CD92"/>
					<stop  offset="1" style="stop-color:#DAEEDF"/>
				</linearGradient>
				<path class="st44" d="M350.8,435.9h-243c-11.4,0-20.7-9.3-20.7-20.7V408c0-0.5,0.4-0.9,0.9-0.9h282.6c0.5,0,0.9,0.4,0.9,0.9v7.2
					C371.5,426.6,362.2,435.9,350.8,435.9z"/>
				<linearGradient id="SVGID_36_" gradientUnits="userSpaceOnUse" x1="84.0856" y1="421.4643" x2="374.4855" y2="421.4643">
					<stop  offset="0" style="stop-color:#E71C58"/>
					<stop  offset="1" style="stop-color:#221015"/>
				</linearGradient>
				<path class="st45" d="M350.8,438.9h-243c-13.1,0-23.7-10.6-23.7-23.7V408c0-2.2,1.7-3.9,3.9-3.9h282.6c2.2,0,3.9,1.7,3.9,3.9
					v7.2C374.5,428.2,363.9,438.9,350.8,438.9z M90.1,410.1v5.1c0,9.8,7.9,17.7,17.7,17.7h243c9.8,0,17.7-7.9,17.7-17.7v-5.1H90.1z"
					/>
			</g>
			<linearGradient id="Latop_top_2_" gradientUnits="userSpaceOnUse" x1="229.3245" y1="434.4691" x2="230.0303" y2="283.0574">
				<stop  offset="0" style="stop-color:#E87167"/>
				<stop  offset="1" style="stop-color:#FFCCE5"/>
			</linearGradient>
			<path id="Latop_top_1_" class="st46" d="M329.5,435.9H129.9c-10.4,0-18.9-8.5-18.9-18.9V297.1c0-8.5,6.9-15.4,15.4-15.4H333
				c8.5,0,15.4,6.9,15.4,15.4V417C348.4,427.4,339.9,435.9,329.5,435.9z"/>
			<g>
				<path class="st47" d="M246.7,360.9c0,7-4.2,13-10.2,15.5c0.4-0.9,0.6-1.9,0.6-2.9c0-4.3-3.5-7.8-7.8-7.8s-7.8,3.5-7.8,7.8
					c0,0.8,0.1,1.6,0.4,2.3c-5.4-2.8-9-8.5-9-15c0-9.4,7.6-16.9,16.9-16.9C239.1,343.9,246.7,351.5,246.7,360.9z"/>
				<path class="st48" d="M237,373.5c0,1-0.2,2-0.6,2.9c-2.1,0.9-4.3,1.4-6.7,1.4c-2.9,0-5.5-0.7-7.9-2c-0.2-0.7-0.4-1.5-0.4-2.3
					c0-4.3,3.5-7.8,7.8-7.8C233.6,365.8,237,369.2,237,373.5z"/>
			</g>
			<g id="Line:_right_top_2_">
				<linearGradient id="SVGID_37_" gradientUnits="userSpaceOnUse" x1="327.5851" y1="293.664" x2="340.9855" y2="293.664">
					<stop  offset="0" style="stop-color:#E71C58"/>
					<stop  offset="1" style="stop-color:#221015"/>
				</linearGradient>
				<path class="st49" d="M339.5,300.4c-0.8,0-1.5-0.7-1.5-1.5c0-4.9-4-8.9-8.9-8.9c-0.8,0-1.5-0.7-1.5-1.5s0.7-1.5,1.5-1.5
					c6.6,0,11.9,5.3,11.9,11.9C341,299.7,340.3,300.4,339.5,300.4z"/>
			</g>
			<g id="Line:_right_middle_1_">
				<linearGradient id="SVGID_38_" gradientUnits="userSpaceOnUse" x1="338.0851" y1="360.1142" x2="341.0851" y2="360.1142">
					<stop  offset="0" style="stop-color:#E71C58"/>
					<stop  offset="1" style="stop-color:#221015"/>
				</linearGradient>
				<path class="st50" d="M339.6,370.7c-0.8,0-1.5-0.7-1.5-1.5v-18.1c0-0.8,0.7-1.5,1.5-1.5s1.5,0.7,1.5,1.5v18.1
					C341.1,370,340.4,370.7,339.6,370.7z"/>
			</g>
			<g id="Lines:_left_1_">
				<g id="Bottom_3_">
					<linearGradient id="SVGID_39_" gradientUnits="userSpaceOnUse" x1="150.7355" y1="345.5141" x2="159.8357" y2="345.5141">
						<stop  offset="0" style="stop-color:#E71C58"/>
						<stop  offset="1" style="stop-color:#221015"/>
					</linearGradient>
					<path class="st51" d="M158.6,349.3c-0.3,0-0.5-0.1-0.8-0.3l-6.6-5.1c-0.5-0.4-0.6-1.2-0.2-1.8c0.4-0.5,1.2-0.6,1.8-0.2l6.6,5.1
						c0.5,0.4,0.6,1.2,0.2,1.8C159.3,349.1,159,349.3,158.6,349.3z"/>
				</g>
				<g id="Middle_4_">
					<linearGradient id="SVGID_40_" gradientUnits="userSpaceOnUse" x1="150.7354" y1="341.7648" x2="166.3357" y2="341.7648">
						<stop  offset="0" style="stop-color:#E71C58"/>
						<stop  offset="1" style="stop-color:#221015"/>
					</linearGradient>
					<path class="st52" d="M165.1,348c-0.3,0-0.5-0.1-0.8-0.3l-13.1-10c-0.5-0.4-0.7-1.2-0.2-1.8s1.2-0.7,1.8-0.2l13.1,10
						c0.5,0.4,0.7,1.2,0.2,1.8C165.8,347.8,165.5,348,165.1,348z"/>
				</g>
				<g id="Top_3_">
					<linearGradient id="SVGID_41_" gradientUnits="userSpaceOnUse" x1="160.2354" y1="338.9643" x2="166.3358" y2="338.9643">
						<stop  offset="0" style="stop-color:#E71C58"/>
						<stop  offset="1" style="stop-color:#221015"/>
					</linearGradient>
					<path class="st53" d="M165.1,341.6c-0.3,0-0.5-0.1-0.8-0.3l-3.6-2.8c-0.5-0.4-0.6-1.2-0.2-1.8c0.4-0.5,1.2-0.6,1.8-0.2l3.6,2.8
						c0.5,0.4,0.6,1.2,0.2,1.8C165.8,341.4,165.5,341.6,165.1,341.6z"/>
				</g>
			</g>
			<g id="Laptop_sparkle_1_">
				<g id="Bottom_2_">
					<path class="st8" d="M364.6,285.4c-1.5,0-2.9-1-3.4-2.5c-0.5-1.9,0.5-3.8,2.4-4.3l8.4-2.4c1.9-0.5,3.8,0.5,4.3,2.4
						c0.5,1.9-0.5,3.8-2.4,4.3l-8.4,2.4C365.2,285.3,364.9,285.4,364.6,285.4z"/>
				</g>
				<g id="Middle_3_">
					<path class="st8" d="M357.3,278c-0.9,0-1.7-0.3-2.4-1c-1.4-1.3-1.5-3.5-0.1-4.9l6.7-7.1c1.3-1.4,3.5-1.5,4.9-0.1
						c1.4,1.3,1.5,3.5,0.1,4.9l-6.7,7.1C359.1,277.6,358.2,278,357.3,278z"/>
				</g>
				<g id="Top_2_">
					<path class="st8" d="M348.7,271.9c-0.2,0-0.4,0-0.6,0c-1.9-0.3-3.2-2.1-2.9-4l1.5-9.1c0.3-1.9,2.1-3.2,4-2.9
						c1.9,0.3,3.2,2.1,2.9,4l-1.5,9.1C351.9,270.6,350.4,271.9,348.7,271.9z"/>
				</g>
			</g>
		</g>
	</g>
</g>
<g>
	<linearGradient id="SVGID_42_" gradientUnits="userSpaceOnUse" x1="207.1839" y1="361.752" x2="251.5049" y2="361.752">
		<stop  offset="0" style="stop-color:#AB2936"/>
		<stop  offset="1" style="stop-color:#E72233"/>
	</linearGradient>
	<path class="st54" d="M248.9,344.8L248.9,344.8c-1.2-0.7-2.4-1.3-3.6-1.8c-4.4-1.7-9-2.8-9-2.8c-8.9-1.6-18.3-0.1-26.4,4.6h0
		c-1.6,0.9-2.6,2.7-2.6,4.6v2.3c0,11.5,5.6,22.2,14.9,28.8l0.6,0.4c0.6,0.4,1.3,0.8,2,1.2l2.3,1.4c1.4,0.8,3.1,0.8,4.5,0l2.3-1.4
		c10.9-6.3,17.6-17.9,17.6-30.4v-2.3C251.5,347.4,250.5,345.7,248.9,344.8z"/>
	<g>
		<path class="st8" d="M230.9,366.3c1.5-1.8,3-3.7,4.1-5.8c0.4-0.8,0.8-1.5,1-2.4c0.2-1-0.2-1.7-1.2-2.1c-0.5-0.2-0.9-0.2-1.4-0.3
			c-1.7-0.1-3.4,0.3-5.1,0.7c-0.2,0-0.3,0.1-0.5,0.1c-0.3,0.1-0.5-0.3-0.3-0.5c0.6-0.5,1.1-0.9,1.7-1.4c2.1-1.7,4.3-3.2,6.4-4.8
			c1-0.7,2-1.5,3-2.3c0.2-0.2,0.1-0.5-0.1-0.5l-5.6-2c-0.1,0-0.2,0-0.3,0.1c-0.7,0.6-1.4,1.3-2.2,2c-2,1.9-3.9,3.7-5.9,5.7
			c-1.3,1.3-2.5,2.7-3.6,4.2c-0.5,0.7-1,1.5-1.2,2.4c-0.3,1,0,1.7,0.9,2.2c0.9,0.4,1.8,0.3,2.8,0.2c1.4-0.1,2.7-0.3,4-0.6
			c0.4-0.1,0.8-0.2,1.3-0.3c0.2,0,0.4,0.2,0.4,0.4c-1.4,4.9-3.8,9.1-6.3,13.3c-0.1,0.1,0,0.3,0.1,0.4l0,0c0.1,0.1,0.3,0.1,0.4,0
			c1.9-2,3.7-4,5.5-6.1C229.6,367.9,230.2,367.1,230.9,366.3z"/>
	</g>
</g>
</svg>
