<svg width="60" height="60" viewBox="0 0 60 60" fill="none" xmlns="http://www.w3.org/2000/svg">
<rect width="60" height="60" rx="18" fill="#FACA7F"/>
<path d="M32.7273 39.3855V33.931C32.7273 33.6901 32.6272 33.4582 32.4636 33.2882C32.2909 33.1173 32.0545 33.0219 31.8182 33.0219H28.1818C27.9364 33.0219 27.7091 33.1173 27.5364 33.2882C27.3637 33.4582 27.2727 33.6901 27.2727 33.931V39.3855C27.2727 39.6265 27.1727 39.8582 27.0091 40.0282C26.8363 40.1992 26.6 40.2946 26.3636 40.2946L20.9091 40.2955C20.7909 40.2955 20.6727 40.2719 20.5636 40.2264C20.4545 40.181 20.3546 40.1137 20.2637 40.0291C20.1819 39.9446 20.1181 39.8446 20.0727 39.7346C20.0272 39.6237 20 39.5055 20 39.3864V28.8792C20 28.7528 20.0272 28.6274 20.0818 28.5119C20.1272 28.3955 20.2 28.2919 20.3 28.2065L29.3909 19.9419C29.5545 19.7892 29.7727 19.7046 30 19.7046C30.2273 19.7046 30.4455 19.7892 30.6091 19.9419L39.7 28.2065C39.8 28.2919 39.8728 28.3955 39.9182 28.5119C39.9728 28.6274 40 28.7528 40 28.8792V39.3864C40 39.5055 39.9728 39.6237 39.9273 39.7346C39.8819 39.8446 39.8181 39.9446 39.7363 40.0291C39.6454 40.1137 39.5455 40.181 39.4364 40.2264C39.3273 40.2719 39.2091 40.2955 39.0909 40.2955L33.6364 40.2946C33.3909 40.2946 33.1637 40.1992 32.9909 40.0282C32.8182 39.8582 32.7273 39.6265 32.7273 39.3855Z" fill="#32230D" stroke="#32230D" stroke-width="1.5" stroke-linecap="round" stroke-linejoin="round"/>
</svg>
