<svg width="21" height="16" viewBox="0 0 21 16" fill="none" xmlns="http://www.w3.org/2000/svg">
<path d="M20.3194 0H0.680588C0.30473 0 0 0.31865 0 0.711664V15.1609C0 15.5539 0.30473 15.8725 0.680588 15.8725H20.3194C20.6953 15.8725 21 15.5539 21 15.1609V0.711664C21 0.31865 20.6953 0 20.3194 0ZM18.583 12.2097C18.8712 12.4712 18.902 12.9275 18.6519 13.2288C18.4018 13.53 17.9655 13.5625 17.6771 13.3009C17.4986 13.1389 12.9929 9.05036 12.8193 8.89282L10.9529 10.5864C10.823 10.7043 10.6615 10.7633 10.5 10.7633C10.3385 10.7633 10.177 10.7043 10.0471 10.5864L8.18069 8.89282C8.00701 9.05041 3.50143 13.1389 3.32287 13.3009C3.03464 13.5624 2.5982 13.5302 2.34806 13.2288C2.09792 12.9275 2.12878 12.4712 2.41702 12.2097L7.1265 7.93619L2.41702 3.66279C2.12883 3.40126 2.09796 2.94501 2.34806 2.64365C2.59825 2.34234 3.03464 2.30997 3.32287 2.5716C3.55643 2.78351 10.076 8.69949 10.5 9.08427C10.8672 8.75102 17.424 2.80129 17.6771 2.5716C17.9653 2.31002 18.4018 2.34224 18.6519 2.64365C18.9021 2.94501 18.8712 3.40131 18.583 3.66279L13.8735 7.93619L18.583 12.2097Z" fill="#ED1C24"/>
</svg>
