<?xml version="1.0" encoding="utf-8"?>
<!-- Generator: Adobe Illustrator 25.3.1, SVG Export Plug-In . SVG Version: 6.00 Build 0)  -->
<svg version="1.1" id="Layer_1" xmlns="http://www.w3.org/2000/svg" xmlns:xlink="http://www.w3.org/1999/xlink" x="0px" y="0px"
	 viewBox="0 0 195.4 130.2" style="enable-background:new 0 0 195.4 130.2;" xml:space="preserve">
<style type="text/css">
	.st0{fill:#FFFFFF;}
</style>
<path class="st0" d="M183.4,54.2l-145.7,0l33.7-33.9c4.2-4.2,4.2-11.1,0-15.3C67.2,0.9,60.1,0.9,56,5L4,57.4c0,0,0,0,0,0l-0.7,0.7
	C2,59.4,1,61,0.7,62.8c0,0.2-0.1,0.5-0.1,0.7c-0.5,3.2,0.7,6.5,3,8.8L56,125.2c2,2,4.8,3.2,7.6,3.2c2.9,0,5.7-1.2,7.7-3.2
	c4.2-4.2,4.2-11.1,0-15.3L37.6,75.9h146.1c6,0,10.9-5,10.8-11.1C194.4,58.9,189.3,54.2,183.4,54.2z"/>
</svg>
