<svg width="65" height="24" viewBox="0 0 65 24" fill="none" xmlns="http://www.w3.org/2000/svg">
<rect width="65" height="24" rx="5" fill="white"/>
<path d="M15.232 16L13.312 12.664H12.268V16H10.9V7.66H13.78C14.42 7.66 14.96 7.772 15.4 7.996C15.848 8.22 16.18 8.52 16.396 8.896C16.62 9.272 16.732 9.692 16.732 10.156C16.732 10.7 16.572 11.196 16.252 11.644C15.94 12.084 15.456 12.384 14.8 12.544L16.864 16H15.232ZM12.268 11.572H13.78C14.292 11.572 14.676 11.444 14.932 11.188C15.196 10.932 15.328 10.588 15.328 10.156C15.328 9.724 15.2 9.388 14.944 9.148C14.688 8.9 14.3 8.776 13.78 8.776H12.268V11.572ZM24.542 12.532C24.542 12.78 24.526 13.004 24.494 13.204H19.442C19.482 13.732 19.678 14.156 20.03 14.476C20.382 14.796 20.814 14.956 21.326 14.956C22.062 14.956 22.582 14.648 22.886 14.032H24.362C24.162 14.64 23.798 15.14 23.27 15.532C22.75 15.916 22.102 16.108 21.326 16.108C20.694 16.108 20.126 15.968 19.622 15.688C19.126 15.4 18.734 15 18.446 14.488C18.166 13.968 18.026 13.368 18.026 12.688C18.026 12.008 18.162 11.412 18.434 10.9C18.714 10.38 19.102 9.98 19.598 9.7C20.102 9.42 20.678 9.28 21.326 9.28C21.95 9.28 22.506 9.416 22.994 9.688C23.482 9.96 23.862 10.344 24.134 10.84C24.406 11.328 24.542 11.892 24.542 12.532ZM23.114 12.1C23.106 11.596 22.926 11.192 22.574 10.888C22.222 10.584 21.786 10.432 21.266 10.432C20.794 10.432 20.39 10.584 20.054 10.888C19.718 11.184 19.518 11.588 19.454 12.1H23.114ZM28.2883 16.108C27.7683 16.108 27.3003 16.016 26.8843 15.832C26.4763 15.64 26.1523 15.384 25.9123 15.064C25.6723 14.736 25.5443 14.372 25.5283 13.972H26.9443C26.9683 14.252 27.1003 14.488 27.3403 14.68C27.5883 14.864 27.8963 14.956 28.2643 14.956C28.6483 14.956 28.9443 14.884 29.1523 14.74C29.3683 14.588 29.4763 14.396 29.4763 14.164C29.4763 13.916 29.3563 13.732 29.1163 13.612C28.8843 13.492 28.5123 13.36 28.0003 13.216C27.5043 13.08 27.1003 12.948 26.7883 12.82C26.4763 12.692 26.2043 12.496 25.9723 12.232C25.7483 11.968 25.6363 11.62 25.6363 11.188C25.6363 10.836 25.7403 10.516 25.9483 10.228C26.1563 9.932 26.4523 9.7 26.8363 9.532C27.2283 9.364 27.6763 9.28 28.1803 9.28C28.9323 9.28 29.5363 9.472 29.9923 9.856C30.4563 10.232 30.7043 10.748 30.7363 11.404H29.3683C29.3443 11.108 29.2243 10.872 29.0083 10.696C28.7923 10.52 28.5003 10.432 28.1323 10.432C27.7723 10.432 27.4963 10.5 27.3043 10.636C27.1123 10.772 27.0163 10.952 27.0163 11.176C27.0163 11.352 27.0803 11.5 27.2083 11.62C27.3363 11.74 27.4923 11.836 27.6763 11.908C27.8603 11.972 28.1323 12.056 28.4923 12.16C28.9723 12.288 29.3643 12.42 29.6683 12.556C29.9803 12.684 30.2483 12.876 30.4723 13.132C30.6963 13.388 30.8123 13.728 30.8203 14.152C30.8203 14.528 30.7163 14.864 30.5083 15.16C30.3003 15.456 30.0043 15.688 29.6203 15.856C29.2443 16.024 28.8003 16.108 28.2883 16.108ZM33.8944 10.504V14.164C33.8944 14.412 33.9504 14.592 34.0624 14.704C34.1824 14.808 34.3824 14.86 34.6624 14.86H35.5024V16H34.4224C33.8064 16 33.3344 15.856 33.0064 15.568C32.6784 15.28 32.5144 14.812 32.5144 14.164V10.504H31.7344V9.388H32.5144V7.744H33.8944V9.388H35.5024V10.504H33.8944ZM39.6313 16.108C39.0073 16.108 38.4433 15.968 37.9393 15.688C37.4353 15.4 37.0393 15 36.7513 14.488C36.4633 13.968 36.3193 13.368 36.3193 12.688C36.3193 12.016 36.4673 11.42 36.7633 10.9C37.0593 10.38 37.4633 9.98 37.9753 9.7C38.4873 9.42 39.0593 9.28 39.6913 9.28C40.3233 9.28 40.8953 9.42 41.4073 9.7C41.9193 9.98 42.3233 10.38 42.6193 10.9C42.9153 11.42 43.0633 12.016 43.0633 12.688C43.0633 13.36 42.9113 13.956 42.6073 14.476C42.3033 14.996 41.8873 15.4 41.3593 15.688C40.8393 15.968 40.2633 16.108 39.6313 16.108ZM39.6313 14.92C39.9833 14.92 40.3113 14.836 40.6153 14.668C40.9273 14.5 41.1793 14.248 41.3713 13.912C41.5633 13.576 41.6593 13.168 41.6593 12.688C41.6593 12.208 41.5673 11.804 41.3833 11.476C41.1993 11.14 40.9553 10.888 40.6513 10.72C40.3473 10.552 40.0193 10.468 39.6673 10.468C39.3153 10.468 38.9873 10.552 38.6833 10.72C38.3873 10.888 38.1513 11.14 37.9753 11.476C37.7993 11.804 37.7113 12.208 37.7113 12.688C37.7113 13.4 37.8913 13.952 38.2513 14.344C38.6193 14.728 39.0793 14.92 39.6313 14.92ZM45.7836 10.348C45.9836 10.012 46.2476 9.752 46.5756 9.568C46.9116 9.376 47.3076 9.28 47.7636 9.28V10.696H47.4156C46.8796 10.696 46.4716 10.832 46.1916 11.104C45.9196 11.376 45.7836 11.848 45.7836 12.52V16H44.4156V9.388H45.7836V10.348ZM55.0811 12.532C55.0811 12.78 55.0651 13.004 55.0331 13.204H49.9811C50.0211 13.732 50.2171 14.156 50.5691 14.476C50.9211 14.796 51.3531 14.956 51.8651 14.956C52.6011 14.956 53.1211 14.648 53.4251 14.032H54.9011C54.7011 14.64 54.3371 15.14 53.8091 15.532C53.2891 15.916 52.6411 16.108 51.8651 16.108C51.2331 16.108 50.6651 15.968 50.1611 15.688C49.6651 15.4 49.2731 15 48.9851 14.488C48.7051 13.968 48.5651 13.368 48.5651 12.688C48.5651 12.008 48.7011 11.412 48.9731 10.9C49.2531 10.38 49.6411 9.98 50.1371 9.7C50.6411 9.42 51.2171 9.28 51.8651 9.28C52.4891 9.28 53.0451 9.416 53.5331 9.688C54.0211 9.96 54.4011 10.344 54.6731 10.84C54.9451 11.328 55.0811 11.892 55.0811 12.532ZM53.6531 12.1C53.6451 11.596 53.4651 11.192 53.1131 10.888C52.7611 10.584 52.3251 10.432 51.8051 10.432C51.3331 10.432 50.9291 10.584 50.5931 10.888C50.2571 11.184 50.0571 11.588 49.9931 12.1H53.6531Z" fill="#1C020A"/>
</svg>
