<?xml version="1.0" encoding="utf-8"?>
<!-- Generator: Adobe Illustrator 25.3.1, SVG Export Plug-In . SVG Version: 6.00 Build 0)  -->
<svg version="1.1" id="Layer_1" xmlns="http://www.w3.org/2000/svg" xmlns:xlink="http://www.w3.org/1999/xlink" x="0px" y="0px"
	 viewBox="0 0 41 38" style="enable-background:new 0 0 41 38;" xml:space="preserve">
<style type="text/css">
	.st0{fill:url(#SVGID_1_);}
	.st1{fill:#02612F;}
	.st2{fill:url(#SVGID_2_);}
	.st3{fill:#FFFFFF;}
</style>
<g>
	
		<linearGradient id="SVGID_1_" gradientUnits="userSpaceOnUse" x1="20.7403" y1="37.2901" x2="20.7403" y2="5.6679" gradientTransform="matrix(1 0 0 -1 0 40)">
		<stop  offset="0" style="stop-color:#57D163"/>
		<stop  offset="1" style="stop-color:#23B33A"/>
	</linearGradient>
	<path class="st0" d="M20.7,2.7c-8.9,0-16.1,7.1-16.1,15.8c0,3.5,1.1,6.7,3.1,9.3l-2,5.9l6.2-1.9c2.5,1.7,5.6,2.6,8.9,2.6
		c8.9,0,16.1-7.1,16.1-15.8C36.8,9.8,29.6,2.7,20.7,2.7z"/>
	<path class="st1" d="M38.8,18.5c0,9.8-8,17.7-17.9,17.7c-3.1,0-6.1-0.8-8.7-2.2l-9.9,3.1l3.2-9.5c-1.6-2.7-2.6-5.8-2.6-9.2
		c0-9.8,8-17.7,17.9-17.7S38.8,8.7,38.8,18.5z M20.8,3.6c-8.3,0-15.1,6.7-15.1,14.9c0,3.3,1.1,6.3,2.9,8.7l-1.9,5.5l5.8-1.8
		c2.4,1.6,5.2,2.5,8.3,2.5c8.3,0,15.1-6.7,15.1-14.9C35.9,10.3,29.1,3.6,20.8,3.6z M29.9,22.6c-0.1-0.2-0.4-0.3-0.8-0.5
		c-0.4-0.2-2.6-1.3-3-1.4c-0.4-0.1-0.7-0.2-1,0.2c-0.3,0.4-1.1,1.4-1.4,1.7c-0.3,0.3-0.5,0.3-1,0.1c-0.4-0.2-1.9-0.7-3.5-2.2
		c-1.3-1.2-2.2-2.6-2.4-3c-0.3-0.4,0-0.7,0.2-0.9c0.2-0.2,0.4-0.5,0.7-0.8c0.2-0.3,0.3-0.4,0.4-0.7c0.1-0.3,0.1-0.5,0-0.8
		c-0.1-0.2-1-2.4-1.4-3.2c-0.4-0.9-0.7-0.7-1-0.7c-0.3,0-0.5,0-0.8,0c-0.3,0-0.8,0.1-1.2,0.5c-0.4,0.4-1.5,1.5-1.5,3.6
		c0,2.1,1.6,4.2,1.8,4.5c0.2,0.3,3,4.8,7.5,6.6c4.5,1.7,4.5,1.2,5.3,1.1c0.8-0.1,2.6-1.1,3-2.1C30,23.7,30,22.8,29.9,22.6z"/>
	<g>
		
			<linearGradient id="SVGID_2_" gradientUnits="userSpaceOnUse" x1="8.6817" y1="39.2067" x2="8.6817" y2="26.3549" gradientTransform="matrix(1 0 0 -1 0 40)">
			<stop  offset="0.1615" style="stop-color:#179B54"/>
			<stop  offset="1" style="stop-color:#3AE67F"/>
		</linearGradient>
		<ellipse class="st2" cx="8.7" cy="7.2" rx="6.4" ry="6.4"/>
		<g>
			<path class="st3" d="M8.7,13.6c-3.6,0-6.4-2.9-6.4-6.4s2.9-6.4,6.4-6.4s6.4,2.9,6.4,6.4S12.2,13.6,8.7,13.6z M8.7,1.9
				c-3,0-5.4,2.4-5.4,5.4s2.4,5.4,5.4,5.4s5.4-2.4,5.4-5.4S11.6,1.9,8.7,1.9z"/>
		</g>
	</g>
</g>
</svg>
