<svg width="60" height="60" viewBox="0 0 60 60" fill="none" xmlns="http://www.w3.org/2000/svg">
<rect width="60" height="60" rx="18" fill="#FACA7F"/>
<path d="M38.46 27.4615C38.46 32.9315 34.0952 37.5284 31.636 39.6843C30.6877 40.5157 29.3123 40.5157 28.364 39.6843C25.9047 37.5284 21.54 32.9315 21.54 27.4615C21.54 25.2175 22.4283 23.0649 24.0188 21.4784C25.6008 19.8919 27.7581 19 30 19C32.2419 19 34.3991 19.8919 35.9812 21.4784C37.5716 23.0649 38.46 25.2175 38.46 27.4615Z" fill="#32230D" stroke="#32230D" stroke-width="1.5" stroke-linecap="round" stroke-linejoin="round"/>
<path d="M30.0001 30.8464C31.8698 30.8464 33.3841 29.3309 33.3841 27.4618C33.3841 25.5926 31.8698 24.0771 30.0001 24.0771C28.1305 24.0771 26.6161 25.5926 26.6161 27.4618C26.6161 29.3309 28.1305 30.8464 30.0001 30.8464Z" fill="#FACA7F"/>
</svg>
