<svg width="25" height="19" viewBox="0 0 25 19" fill="none" xmlns="http://www.w3.org/2000/svg">
<path d="M12.7187 18.0598C10.8634 18.0598 9.00687 18.061 7.15155 18.0586C5.9563 18.0573 5.11498 17.4071 4.80882 16.2485C4.05934 13.4147 3.31231 10.5809 2.56528 7.74712C2.40853 7.15194 2.56283 6.68781 3.01717 6.38042C3.45927 6.08039 3.95769 6.11468 4.45245 6.47839C5.58646 7.30992 6.72048 8.14023 7.85571 8.9693C8.65908 9.55591 9.38529 9.37466 9.81758 8.48557C10.4348 7.21318 11.0471 5.9371 11.6717 4.66838C11.9827 4.03647 12.6918 3.78542 13.2723 4.13321C13.4988 4.26915 13.6997 4.5104 13.8209 4.75043C14.4492 5.99589 15.0443 7.25726 15.6554 8.51129C16.0718 9.36609 16.8078 9.54733 17.5769 8.98645C18.744 8.13533 19.9061 7.27563 21.0781 6.43063C21.8141 5.90036 22.7693 6.26163 22.9408 7.13847C22.98 7.33809 22.9432 7.56709 22.8906 7.77038C22.1436 10.614 21.3904 13.4564 20.6336 16.2988C20.3384 17.4083 19.4934 18.0586 18.3435 18.0598C16.4686 18.0622 14.5937 18.0598 12.7187 18.0598Z" fill="url(#paint0_linear_35_15)"/>
<path d="M23.2495 2.73462C24.1545 2.73462 24.8525 3.44001 24.8501 4.35359C24.8476 5.23288 24.13 5.94072 23.2409 5.94072C22.3604 5.94072 21.6305 5.21818 21.6305 4.34624C21.6305 3.45103 22.3494 2.73462 23.2495 2.73462Z" fill="url(#paint1_linear_35_15)"/>
<path d="M11.1279 1.60796C11.1304 0.721325 11.8419 0.00368758 12.7212 1.36724e-05C13.6078 -0.00366024 14.3475 0.733571 14.3463 1.61776C14.3451 2.50562 13.6115 3.22326 12.7114 3.21958C11.8321 3.21591 11.1255 2.49827 11.1279 1.60796Z" fill="url(#paint2_linear_35_15)"/>
<path d="M3.81445 4.34134C3.81323 5.2341 3.11764 5.93337 2.22365 5.94071C1.33334 5.94806 0.58876 5.20716 0.602231 4.33032C0.616926 3.42654 1.33089 2.72727 2.2359 2.73339C3.12498 2.73829 3.81568 3.44246 3.81445 4.34134Z" fill="url(#paint3_linear_35_15)"/>
<defs>
<linearGradient id="paint0_linear_35_15" x1="2.50586" y1="11.0184" x2="22.9572" y2="11.0184" gradientUnits="userSpaceOnUse">
<stop stop-color="white"/>
<stop offset="0.9637" stop-color="#B0B0B0"/>
</linearGradient>
<linearGradient id="paint1_linear_35_15" x1="21.6305" y1="4.33767" x2="24.8501" y2="4.33767" gradientUnits="userSpaceOnUse">
<stop stop-color="white"/>
<stop offset="0.9637" stop-color="#B0B0B0"/>
</linearGradient>
<linearGradient id="paint2_linear_35_15" x1="11.1279" y1="1.6098" x2="14.3463" y2="1.6098" gradientUnits="userSpaceOnUse">
<stop stop-color="white"/>
<stop offset="0.9637" stop-color="#B0B0B0"/>
</linearGradient>
<linearGradient id="paint3_linear_35_15" x1="0.602047" y1="4.33705" x2="3.81445" y2="4.33705" gradientUnits="userSpaceOnUse">
<stop stop-color="white"/>
<stop offset="0.9637" stop-color="#B0B0B0"/>
</linearGradient>
</defs>
</svg>
